<svg width="57" height="57" viewBox="0 0 57 57" fill="none" xmlns="http://www.w3.org/2000/svg">
<circle cx="28.5" cy="28.5" r="28.5" fill="#356116"/>
<circle cx="28.5" cy="28.5" r="23.5" fill="#FEF9E8"/>
<path d="M42.98 39.584C43.072 39.8907 43.118 40.182 43.118 40.458C43.118 40.9487 42.9647 41.3473 42.658 41.654C42.382 41.93 41.9987 42.068 41.508 42.068C41.324 42.068 41.1707 42.0527 41.048 42.022C39.668 41.7153 38.5793 41.378 37.782 41.01C37.1687 40.734 36.034 40.044 34.378 38.94C33.1207 38.112 32.078 37.468 31.25 37.008C30.1767 36.4253 29.0267 36.0267 27.8 35.812C27.248 35.72 25.9447 35.5667 23.89 35.352C22.97 35.2907 22.2953 35.2293 21.866 35.168L21.038 41.976L21.084 42.712C21.084 43.816 20.946 44.552 20.67 44.92C20.4247 45.288 19.9033 45.472 19.106 45.472C18.278 45.472 17.5573 45.2113 16.944 44.69C16.3307 44.1687 16.024 43.5247 16.024 42.758C16.024 40.4273 16.1467 38.3573 16.392 36.548C17.2507 30.9973 19.2287 25.232 22.326 19.252C24.074 15.9093 26.7573 13.3333 30.376 11.524C31.5413 10.9413 32.722 10.65 33.918 10.65C35.1447 10.65 36.2793 10.972 37.322 11.616C38.3953 12.2293 39.2847 13.134 39.99 14.33C40.634 15.4033 40.956 16.446 40.956 17.458C40.956 18.8687 40.404 20.2947 39.3 21.736C37.9813 23.4533 36.1107 25.8913 33.688 29.05L30.698 32.914C30.7287 32.914 30.7593 32.96 30.79 33.052C30.8513 33.1133 30.9127 33.1747 30.974 33.236L31.986 33.788C34.5313 35.168 36.402 36.2567 37.598 37.054C38.7633 37.7593 40.0053 38.112 41.324 38.112C41.7227 38.112 42.0293 38.0967 42.244 38.066C42.336 38.2193 42.4587 38.4493 42.612 38.756C42.7653 39.0627 42.888 39.3387 42.98 39.584ZM25.96 30.476C27.2173 29.0653 28.4747 27.5933 29.732 26.06C31.02 24.5267 32.1547 23.0853 33.136 21.736C33.5347 21.184 33.872 20.6013 34.148 19.988C34.424 19.344 34.6693 18.7 34.884 18.056C35.1293 17.412 35.298 16.952 35.39 16.676C35.4207 16.584 35.436 16.4307 35.436 16.216C35.436 15.9707 35.4053 15.664 35.344 15.296C35.2827 14.928 35.2367 14.6673 35.206 14.514C32.9673 15.1887 30.928 16.5687 29.088 18.654C27.248 20.7393 25.7913 23.0547 24.718 25.6C23.6753 28.1453 23.1387 30.338 23.108 32.178C23.7213 32.2393 24.1967 32.132 24.534 31.856C24.902 31.58 25.3773 31.12 25.96 30.476Z" fill="#356116"/>
</svg>
