<svg width="216" height="21" viewBox="0 0 216 21" fill="none" xmlns="http://www.w3.org/2000/svg">
<path d="M16.01 17.408C16.064 17.588 16.091 17.759 16.091 17.921C16.091 18.209 16.001 18.443 15.821 18.623C15.659 18.785 15.434 18.866 15.146 18.866C15.038 18.866 14.948 18.857 14.876 18.839C14.066 18.659 13.427 18.461 12.959 18.245C12.599 18.083 11.933 17.678 10.961 17.03C10.223 16.544 9.611 16.166 9.125 15.896C8.495 15.554 7.82 15.32 7.1 15.194C6.776 15.14 6.011 15.05 4.805 14.924C4.265 14.888 3.869 14.852 3.617 14.816L3.131 18.812L3.158 19.244C3.158 19.892 3.077 20.324 2.915 20.54C2.771 20.756 2.465 20.864 1.997 20.864C1.511 20.864 1.088 20.711 0.728 20.405C0.368 20.099 0.188 19.721 0.188 19.271C0.188 17.903 0.26 16.688 0.404 15.626C0.908 12.368 2.069 8.984 3.887 5.474C4.913 3.512 6.488 2 8.612 0.937999C9.296 0.595999 9.989 0.424999 10.691 0.424999C11.411 0.424999 12.077 0.613999 12.689 0.991998C13.319 1.352 13.841 1.883 14.255 2.585C14.633 3.215 14.822 3.827 14.822 4.421C14.822 5.249 14.498 6.086 13.85 6.932C13.076 7.94 11.978 9.371 10.556 11.225L8.801 13.493C8.819 13.493 8.837 13.52 8.855 13.574C8.891 13.61 8.927 13.646 8.963 13.682L9.557 14.006C11.051 14.816 12.149 15.455 12.851 15.923C13.535 16.337 14.264 16.544 15.038 16.544C15.272 16.544 15.452 16.535 15.578 16.517C15.632 16.607 15.704 16.742 15.794 16.922C15.884 17.102 15.956 17.264 16.01 17.408ZM6.02 12.062C6.758 11.234 7.496 10.37 8.234 9.47C8.99 8.57 9.656 7.724 10.232 6.932C10.466 6.608 10.664 6.266 10.826 5.906C10.988 5.528 11.132 5.15 11.258 4.772C11.402 4.394 11.501 4.124 11.555 3.962C11.573 3.908 11.582 3.818 11.582 3.692C11.582 3.548 11.564 3.368 11.528 3.152C11.492 2.936 11.465 2.783 11.447 2.693C10.133 3.089 8.936 3.899 7.856 5.123C6.776 6.347 5.921 7.706 5.291 9.2C4.679 10.694 4.364 11.981 4.346 13.061C4.706 13.097 4.985 13.034 5.183 12.872C5.399 12.71 5.678 12.44 6.02 12.062ZM35.3272 12.44C35.2552 12.89 35.1112 14.06 34.8952 15.95C34.7692 17.03 34.6972 17.588 34.6792 17.624L32.3032 17.246L32.7892 11.414L32.4922 11.63C32.3302 11.774 32.1052 11.999 31.8172 12.305C31.5472 12.593 31.3042 12.854 31.0882 13.088C30.3862 14.06 29.8732 14.717 29.5492 15.059C28.7572 15.887 28.0282 16.58 27.3622 17.138C26.7142 17.678 25.9402 18.173 25.0402 18.623C24.6802 18.803 24.2392 18.893 23.7172 18.893C23.2672 18.893 22.8352 18.812 22.4212 18.65C22.0072 18.488 21.6562 18.245 21.3682 17.921C19.9462 16.373 19.2352 14.501 19.2352 12.305C19.2352 11.675 19.2892 11.027 19.3972 10.361C19.5412 9.497 19.7212 8.651 19.9372 7.823C20.1532 6.977 20.4502 5.888 20.8282 4.556C20.9542 4.178 21.1252 3.611 21.3412 2.855C21.4312 2.495 21.5662 2.288 21.7462 2.234C21.8182 2.198 21.8812 2.18 21.9352 2.18C22.1332 2.18 22.3672 2.261 22.6372 2.423C23.2312 2.765 23.6542 3.098 23.9062 3.422C24.1762 3.746 24.3112 4.115 24.3112 4.529C24.3112 5.015 24.1222 5.654 23.7442 6.446C22.6282 8.822 22.0702 11.009 22.0702 13.007C22.0702 13.529 22.0882 13.916 22.1242 14.168C22.1602 14.582 22.3672 14.951 22.7452 15.275C23.1232 15.599 23.5372 15.761 23.9872 15.761C24.4732 15.761 24.8962 15.581 25.2562 15.221C27.1282 13.349 28.6672 11.45 29.8732 9.524C31.0792 7.598 32.0242 5.483 32.7082 3.179C32.7802 2.909 32.8612 2.648 32.9512 2.396L33.0052 2.342C34.0672 2.45 34.9042 2.864 35.5162 3.584C36.1282 4.286 36.3982 5.159 36.3262 6.203C35.8402 9.083 35.5072 11.162 35.3272 12.44ZM55.1973 4.043C55.3233 4.331 55.3863 4.565 55.3863 4.745C55.3863 5.015 55.2783 5.276 55.0623 5.528C54.8103 5.6 54.6303 5.636 54.5223 5.636C54.1803 5.636 53.8833 5.528 53.6313 5.312C53.3793 5.096 53.1273 4.799 52.8753 4.421C52.3713 3.737 51.7053 3.395 50.8773 3.395C50.7333 3.395 50.4993 3.413 50.1753 3.449C47.1333 3.863 44.8113 5.663 43.2093 8.849C42.3813 10.541 41.9673 12.206 41.9673 13.844C41.9673 15.14 42.2913 16.121 42.9393 16.787C43.5873 17.453 44.5503 17.786 45.8283 17.786C48.2043 17.786 50.2743 17.264 52.0383 16.22L55.2783 14.276L57.2763 13.061C57.5643 12.881 57.7803 12.791 57.9243 12.791C58.0863 12.791 58.2213 12.854 58.3293 12.98C58.5093 13.214 58.5993 13.493 58.5993 13.817C58.5993 14.033 58.5363 14.249 58.4103 14.465C58.2843 14.663 58.1223 14.843 57.9243 15.005L57.0063 15.788C56.3943 16.31 55.8813 16.733 55.4673 17.057C55.0533 17.363 54.6213 17.651 54.1713 17.921C51.7233 19.289 49.4823 19.973 47.4483 19.973C46.4763 19.973 45.5223 19.829 44.5863 19.541C42.8943 19.019 41.5893 18.191 40.6713 17.057C39.7533 15.905 39.2943 14.465 39.2943 12.737C39.2943 12.197 39.3303 11.702 39.4023 11.252C39.7803 8.732 40.6173 6.554 41.9133 4.718C42.3633 4.07 42.9843 3.431 43.7763 2.801C44.5683 2.153 45.4503 1.631 46.4223 1.235C47.4123 0.820999 48.3843 0.613999 49.3383 0.613999C50.0763 0.613999 50.7783 0.748999 51.4443 1.019C52.3623 1.379 53.1273 1.793 53.7393 2.261C54.3693 2.711 54.8553 3.305 55.1973 4.043ZM79.2119 10.334C79.2659 11.432 79.0229 12.593 78.4829 13.817C77.9609 15.041 77.2229 16.148 76.2689 17.138C75.3329 18.128 74.2979 18.839 73.1639 19.271C72.0299 19.703 70.9139 19.919 69.8159 19.919C68.6819 19.919 67.6019 19.694 66.5759 19.244C65.5679 18.776 64.6409 18.092 63.7949 17.192C63.2369 16.616 62.7689 15.905 62.3909 15.059C62.0129 14.195 61.7339 13.304 61.5539 12.386C61.3919 11.54 61.3109 10.712 61.3109 9.902C61.3109 8.048 61.7339 6.41 62.5799 4.988C63.1019 4.106 63.6959 3.431 64.3619 2.963C65.0459 2.477 65.8469 2.234 66.7649 2.234C66.9089 2.234 67.1609 2.252 67.5209 2.288C68.2949 2.396 69.2489 2.468 70.3829 2.504C71.4989 2.54 72.3269 2.594 72.8669 2.666C73.8569 2.774 74.7299 3.125 75.4859 3.719C76.2599 4.313 76.9709 5.078 77.6189 6.014C77.8889 6.41 78.1229 6.824 78.3209 7.256C78.5369 7.688 78.7709 8.219 79.0229 8.849L79.5899 10.172L79.2119 10.334ZM70.3829 16.895C71.3729 16.553 72.2729 16.004 73.0829 15.248C73.8929 14.492 74.5229 13.61 74.9729 12.602C75.4229 11.594 75.6209 10.568 75.5669 9.524C75.4589 7.814 75.2339 6.554 74.8919 5.744C74.5499 4.934 74.0009 4.367 73.2449 4.043C72.5069 3.719 71.3729 3.503 69.8429 3.395C69.6809 3.377 69.5099 3.368 69.3299 3.368L67.5479 5.285C67.0439 5.861 66.7019 6.32 66.5219 6.662C65.7119 8.156 65.3069 9.947 65.3069 12.035C65.3069 12.737 65.3249 13.268 65.3609 13.628C65.4329 14.762 65.7749 15.644 66.3869 16.274C66.9989 16.886 67.7819 17.192 68.7359 17.192C69.2039 17.192 69.7529 17.093 70.3829 16.895ZM87.1592 18.596C87.6452 18.506 88.6532 18.299 90.1832 17.975L92.2622 17.543C92.4962 17.777 92.6942 17.984 92.8562 18.164C93.0182 18.344 93.0992 18.497 93.0992 18.623C93.0992 18.767 93.0272 18.911 92.8832 19.055C92.7392 19.199 92.4512 19.433 92.0192 19.757C91.9652 19.793 91.9022 19.856 91.8302 19.946C91.7762 20.036 91.7132 20.09 91.6412 20.108L90.9122 20.297C90.3002 20.477 89.7512 20.612 89.2652 20.702C88.7972 20.81 88.3202 20.864 87.8342 20.864C86.1062 20.864 84.6932 20.351 83.5952 19.325C83.1812 18.947 82.8572 18.569 82.6232 18.191C82.4072 17.795 82.2992 17.372 82.2992 16.922C82.2992 16.724 82.3082 16.58 82.3262 16.49C82.6142 14.708 82.9382 13.196 83.2982 11.954C83.6762 10.586 84.3602 8.264 85.3502 4.988C85.5662 4.214 85.9082 3.053 86.3762 1.505C86.5022 1.091 86.6732 0.803 86.8892 0.641C87.1232 0.479 87.4562 0.415999 87.8882 0.451999C87.9782 0.451999 88.0592 0.460999 88.1312 0.478999C88.2212 0.496998 88.3112 0.505998 88.4012 0.505998C89.5172 0.595999 90.0752 1.136 90.0752 2.126C90.0752 2.378 90.0392 2.639 89.9672 2.909C89.8232 3.485 89.5532 4.259 89.1572 5.231C87.6992 8.939 86.5742 12.512 85.7822 15.95C85.6742 16.382 85.6202 16.832 85.6202 17.3C85.6202 18.182 86.0072 18.623 86.7812 18.623C86.9432 18.623 87.0692 18.614 87.1592 18.596ZM109.846 5.528C109.954 6.302 110.062 7.427 110.17 8.903L110.224 10.307C110.224 12.917 110.566 15.248 111.25 17.3C111.34 17.588 111.385 17.957 111.385 18.407C111.385 18.659 111.367 19.001 111.331 19.433C111.313 19.721 111.205 19.946 111.007 20.108C110.809 20.288 110.557 20.378 110.251 20.378C110.215 20.378 110.116 20.36 109.954 20.324C109.504 20.216 109.162 20.018 108.928 19.73C108.694 19.424 108.577 19.055 108.577 18.623C108.577 18.479 108.586 18.371 108.604 18.299C108.604 18.191 108.604 18.038 108.604 17.84C108.604 17.516 108.586 17.219 108.55 16.949C108.406 16.247 108.181 15.311 107.875 14.141C107.767 13.655 107.542 13.412 107.2 13.412C107.074 13.412 106.93 13.439 106.768 13.493C106.21 13.655 105.715 13.808 105.283 13.952C104.869 14.096 104.5 14.213 104.176 14.303L102.88 14.681C102.142 14.897 101.458 15.068 100.828 15.194C100.162 15.338 99.6755 15.707 99.3695 16.301C99.0815 16.841 98.6675 17.57 98.1275 18.488C97.7855 19.1 97.3355 19.406 96.7775 19.406C96.5075 19.406 96.2375 19.343 95.9675 19.217C95.7155 19.073 95.4995 18.893 95.3195 18.677C95.0495 18.371 94.9145 18.074 94.9145 17.786C94.9145 17.588 94.9685 17.381 95.0765 17.165L96.9395 13.385C98.9915 9.209 100.216 6.707 100.612 5.879C101.746 3.683 103.285 2.171 105.229 1.343C105.643 1.145 106.066 1.046 106.498 1.046C107.038 1.046 107.533 1.19 107.983 1.478C108.451 1.748 108.811 2.135 109.063 2.639C109.423 3.377 109.684 4.34 109.846 5.528ZM101.125 12.359C103.591 11.927 105.688 11.576 107.416 11.306C107.38 9.578 107.326 8.219 107.254 7.229C107.2 6.221 107.074 5.213 106.876 4.205C105.922 4.313 105.202 4.781 104.716 5.609C103.87 6.941 103.06 8.318 102.286 9.74C102.16 9.974 101.926 10.496 101.584 11.306L101.125 12.359ZM136.595 3.125C136.793 3.161 137.234 3.854 137.918 5.204C138.602 6.536 139.439 8.264 140.429 10.388L141.293 12.197C141.671 11.783 142.022 11.306 142.346 10.766C142.67 10.208 143.075 9.461 143.561 8.525C144.119 7.463 144.506 6.779 144.722 6.473C145.586 5.159 146.522 3.764 147.53 2.288C147.656 2.09 147.881 1.955 148.205 1.883C148.259 1.865 148.349 1.856 148.475 1.856C148.907 1.856 149.384 2.036 149.906 2.396C150.446 2.756 150.797 3.125 150.959 3.503C150.995 3.575 151.013 3.71 151.013 3.908C151.013 4.088 151.004 4.223 150.986 4.313C150.95 4.475 150.905 4.682 150.851 4.934C150.815 5.168 150.779 5.447 150.743 5.771C150.167 10.163 149.753 13.457 149.501 15.653C149.429 16.157 149.393 16.724 149.393 17.354L149.339 18.218C149.321 18.398 149.312 18.605 149.312 18.839C149.312 19.073 149.285 19.235 149.231 19.325C149.177 19.415 149.078 19.46 148.934 19.46C148.826 19.46 148.664 19.433 148.448 19.379C147.872 19.253 147.431 19.028 147.125 18.704C146.819 18.362 146.648 17.894 146.612 17.3C146.594 16.994 146.585 16.517 146.585 15.869C146.585 15.203 146.603 14.186 146.639 12.818L146.666 11.333L146.72 9.2C146.558 9.344 146.144 9.911 145.478 10.901C144.83 11.873 144.191 12.89 143.561 13.952C142.931 15.014 142.517 15.833 142.319 16.409C142.139 16.859 141.959 17.192 141.779 17.408C141.617 17.624 141.419 17.732 141.185 17.732C140.969 17.732 140.69 17.633 140.348 17.435C139.376 16.841 138.782 16.022 138.566 14.978C138.224 13.376 137.801 11.711 137.297 9.983C137.207 9.659 137.027 9.218 136.757 8.66C136.505 8.102 136.343 7.751 136.271 7.607L135.92 6.905C133.292 10.397 131.51 13.601 130.574 16.517C130.394 17.129 130.223 17.57 130.061 17.84C129.899 18.092 129.71 18.218 129.494 18.218C129.152 18.218 128.666 17.912 128.036 17.3C127.55 16.868 127.307 16.382 127.307 15.842C127.307 15.554 127.361 15.266 127.469 14.978C128.225 12.746 129.35 10.631 130.844 8.633L131.681 7.526C132.815 6.032 133.67 4.862 134.246 4.016C134.678 3.386 135.254 3.071 135.974 3.071C136.1 3.071 136.307 3.089 136.595 3.125ZM155.241 18.407C154.845 18.407 154.512 18.308 154.242 18.11C153.99 17.912 153.81 17.543 153.702 17.003C154.278 17.057 154.701 16.931 154.971 16.625C155.259 16.319 155.52 15.86 155.754 15.248L156.321 13.628C156.429 13.34 156.699 12.584 157.131 11.36C157.581 10.136 158.04 8.993 158.508 7.931C159.12 6.491 160.056 4.745 161.316 2.693C161.64 2.189 162.027 1.811 162.477 1.559C162.927 1.289 163.404 1.154 163.908 1.154C164.358 1.154 164.79 1.271 165.204 1.505C165.636 1.721 166.014 2.045 166.338 2.477C166.608 2.837 166.851 3.233 167.067 3.665C167.283 4.079 167.553 4.637 167.877 5.339L168.39 6.419C168.516 6.707 168.615 7.103 168.687 7.607C168.777 8.435 169.146 8.948 169.794 9.146C169.884 9.182 169.983 9.272 170.091 9.416C170.199 9.542 170.289 9.65 170.361 9.74C169.821 10.1 169.551 10.577 169.551 11.171C169.551 11.495 169.632 11.945 169.794 12.521C170.01 13.295 170.226 14.168 170.442 15.14C170.676 16.094 170.829 16.742 170.901 17.084L171.225 18.569C171.243 18.641 171.252 18.74 171.252 18.866L171.225 19.595C171.063 19.649 170.847 19.73 170.577 19.838C170.307 19.946 170.082 20 169.902 20C169.416 20 168.876 19.892 168.282 19.676C168.048 19.604 167.895 19.487 167.823 19.325C167.769 19.145 167.742 18.929 167.742 18.677C167.742 18.425 167.733 18.245 167.715 18.137L167.58 17.381C166.986 14.123 166.635 12.314 166.527 11.954C166.095 12.08 165.546 12.17 164.88 12.224C164.088 12.332 163.539 12.431 163.233 12.521C163.071 12.575 162.792 12.602 162.396 12.602L161.289 12.575C160.785 12.575 160.407 12.629 160.155 12.737C160.011 12.809 159.687 13.52 159.183 14.87C158.805 15.842 158.571 16.409 158.481 16.571C158.139 17.201 157.689 17.669 157.131 17.975C156.573 18.263 155.943 18.407 155.241 18.407ZM161.343 9.578C161.685 9.524 162.081 9.497 162.531 9.497H163.503C164.079 9.497 164.565 9.47 164.961 9.416C165.375 9.344 165.744 9.209 166.068 9.011C165.924 8.615 165.6 7.931 165.096 6.959C164.538 5.861 164.151 5.006 163.935 4.394C163.251 5.492 162.702 6.428 162.288 7.202C161.892 7.976 161.577 8.768 161.343 9.578ZM179.622 18.353C179.964 18.353 180.306 18.326 180.648 18.272L182.916 17.921C184.248 17.705 185.202 17.561 185.778 17.489C186.174 17.435 186.777 17.39 187.587 17.354C187.839 17.354 188.235 17.336 188.775 17.3L189.855 17.192C190.719 17.084 191.367 17.03 191.799 17.03C192.231 17.03 192.447 17.237 192.447 17.651C192.447 17.903 192.366 18.11 192.204 18.272C192.06 18.434 191.853 18.542 191.583 18.596L191.016 18.704C190.098 18.902 188.946 19.127 187.56 19.379L186.291 19.595C184.689 19.883 183.312 20.081 182.16 20.189L181.134 20.297C180.306 20.405 179.694 20.459 179.298 20.459C178.776 20.459 178.245 20.378 177.705 20.216C177.561 20.162 177.381 20.099 177.165 20.027C176.949 19.973 176.778 19.919 176.652 19.865C175.842 19.433 175.437 18.947 175.437 18.407C175.437 18.011 175.644 17.552 176.058 17.03C178.254 14.276 180.18 11.909 181.836 9.929C182.556 9.029 183.222 7.931 183.834 6.635C183.294 6.401 182.754 6.284 182.214 6.284C181.818 6.284 181.44 6.329 181.08 6.419C180.72 6.491 180.234 6.617 179.622 6.797L178.407 7.202C177.903 7.4 177.408 7.562 176.922 7.688C176.742 7.742 176.553 7.769 176.355 7.769C175.905 7.769 175.464 7.652 175.032 7.418C174.6 7.166 174.285 6.86 174.087 6.5C173.997 6.32 173.952 6.167 173.952 6.041C173.952 5.789 174.105 5.609 174.411 5.501C175.779 5.015 176.94 4.646 177.894 4.394C178.866 4.142 179.856 4.016 180.864 4.016C181.584 4.016 182.367 4.115 183.213 4.313C184.401 4.619 185.553 5.141 186.669 5.879C187.173 6.221 187.425 6.617 187.425 7.067C187.425 7.391 187.317 7.715 187.101 8.039C186.453 9.011 185.832 9.848 185.238 10.55C184.95 10.91 184.266 11.666 183.186 12.818L181.404 14.789C180.864 15.383 180.27 16.121 179.622 17.003L178.785 18.056L178.947 18.407L179.622 18.353ZM202.279 9.956C202.279 10.028 202.288 10.109 202.306 10.199C202.324 10.271 202.342 10.343 202.36 10.415C202.504 10.433 202.72 10.442 203.008 10.442C204.268 10.442 205.564 10.172 206.896 9.632C207.274 9.488 207.589 9.416 207.841 9.416C208.345 9.416 208.759 9.65 209.083 10.118C209.245 10.37 209.326 10.586 209.326 10.766C209.326 10.982 209.209 11.207 208.975 11.441C208.255 12.107 207.49 12.485 206.68 12.575C205.96 12.665 204.88 12.818 203.44 13.034L201.55 13.304C201.262 13.934 201.118 14.546 201.118 15.14C201.118 16.004 201.415 16.724 202.009 17.3C202.621 17.858 203.449 18.155 204.493 18.191C205.555 18.209 206.914 18.137 208.57 17.975L208.975 17.948C209.425 17.948 209.794 18.056 210.082 18.272C210.388 18.47 210.676 18.83 210.946 19.352C210.748 19.784 210.469 20.072 210.109 20.216C209.749 20.378 209.281 20.495 208.705 20.567C208.111 20.639 207.436 20.675 206.68 20.675C205.042 20.675 203.566 20.414 202.252 19.892C199.93 18.992 198.445 17.435 197.797 15.221C197.707 14.915 197.662 14.591 197.662 14.249C197.662 13.889 197.662 13.673 197.662 13.601C197.662 12.989 197.365 12.539 196.771 12.251C196.285 11.981 195.907 11.72 195.637 11.468C195.385 11.216 195.223 10.838 195.151 10.334L198.202 10.145L199.579 6.176C199.615 6.05 199.651 5.897 199.687 5.717C199.741 5.519 199.795 5.366 199.849 5.258C200.011 4.898 200.092 4.601 200.092 4.367C200.092 4.007 199.921 3.692 199.579 3.422C199.453 3.332 199.345 3.17 199.255 2.936C199.183 2.684 199.111 2.486 199.039 2.342L199.633 2.153C199.921 2.081 200.128 2.018 200.254 1.964C200.326 1.928 200.479 1.865 200.713 1.775C200.947 1.667 201.082 1.55 201.118 1.424C201.244 1.118 201.397 0.910999 201.577 0.802999C201.775 0.695 202.009 0.641 202.279 0.641C202.459 0.641 202.729 0.659 203.089 0.694999C203.197 0.694999 203.305 0.721999 203.413 0.776C203.539 0.811999 203.638 0.865999 203.71 0.937999C204.124 1.37 204.583 1.658 205.087 1.802C205.591 1.946 206.185 2.018 206.869 2.018H208.03H210.298C211.828 2.018 212.971 2.036 213.727 2.072C214.123 2.09 214.627 2.261 215.239 2.585C215.347 2.639 215.428 2.747 215.482 2.909C215.554 3.053 215.59 3.197 215.59 3.341C215.59 3.413 215.527 3.503 215.401 3.611C215.275 3.701 215.158 3.764 215.05 3.8C213.826 4.124 212.899 4.313 212.269 4.367C211.297 4.457 209.839 4.574 207.895 4.718C207.445 4.736 206.725 4.781 205.735 4.853C205.663 4.853 205.537 4.835 205.357 4.799C205.177 4.745 205.042 4.718 204.952 4.718C204.286 4.718 203.863 4.997 203.683 5.555C203.197 6.995 202.738 8.426 202.306 9.848L202.279 9.956Z" fill="#356116"/>
</svg>
